<svg xmlns="http://www.w3.org/2000/svg" viewBox="0 0 1200 800" width="1200" height="800">
<defs>
<linearGradient id="bg" x1="0" y1="0" x2="1" y2="1"><stop offset="0" stop-color="#12294a"/><stop offset="1" stop-color="#070b14"/></linearGradient>
<radialGradient id="glow" cx="0.5" cy="0.5" r="0.5"><stop offset="0" stop-color="#4d9fff" stop-opacity="0.35"/><stop offset="1" stop-color="#4d9fff" stop-opacity="0"/></radialGradient>
</defs>
<rect width="1200" height="800" fill="url(#bg)"/>
<g fill="#4d9fff" opacity="0.16"><circle cx="40" cy="40" r="1.6"/><circle cx="40" cy="100" r="1.6"/><circle cx="40" cy="160" r="1.6"/><circle cx="40" cy="220" r="1.6"/><circle cx="40" cy="280" r="1.6"/><circle cx="40" cy="340" r="1.6"/><circle cx="40" cy="400" r="1.6"/><circle cx="40" cy="460" r="1.6"/><circle cx="40" cy="520" r="1.6"/><circle cx="40" cy="580" r="1.6"/><circle cx="40" cy="640" r="1.6"/><circle cx="40" cy="700" r="1.6"/><circle cx="40" cy="760" r="1.6"/><circle cx="100" cy="40" r="1.6"/><circle cx="100" cy="100" r="1.6"/><circle cx="100" cy="160" r="1.6"/><circle cx="100" cy="220" r="1.6"/><circle cx="100" cy="280" r="1.6"/><circle cx="100" cy="340" r="1.6"/><circle cx="100" cy="400" r="1.6"/><circle cx="100" cy="460" r="1.6"/><circle cx="100" cy="520" r="1.6"/><circle cx="100" cy="580" r="1.6"/><circle cx="100" cy="640" r="1.6"/><circle cx="100" cy="700" r="1.6"/><circle cx="100" cy="760" r="1.6"/><circle cx="160" cy="40" r="1.6"/><circle cx="160" cy="100" r="1.6"/><circle cx="160" cy="160" r="1.6"/><circle cx="160" cy="220" r="1.6"/><circle cx="160" cy="280" r="1.6"/><circle cx="160" cy="340" r="1.6"/><circle cx="160" cy="400" r="1.6"/><circle cx="160" cy="460" r="1.6"/><circle cx="160" cy="520" r="1.6"/><circle cx="160" cy="580" r="1.6"/><circle cx="160" cy="640" r="1.6"/><circle cx="160" cy="700" r="1.6"/><circle cx="160" cy="760" r="1.6"/><circle cx="220" cy="40" r="1.6"/><circle cx="220" cy="100" r="1.6"/><circle cx="220" cy="160" r="1.6"/><circle cx="220" cy="220" r="1.6"/><circle cx="220" cy="280" r="1.6"/><circle cx="220" cy="340" r="1.6"/><circle cx="220" cy="400" r="1.6"/><circle cx="220" cy="460" r="1.6"/><circle cx="220" cy="520" r="1.6"/><circle cx="220" cy="580" r="1.6"/><circle cx="220" cy="640" r="1.6"/><circle cx="220" cy="700" r="1.6"/><circle cx="220" cy="760" r="1.6"/><circle cx="280" cy="40" r="1.6"/><circle cx="280" cy="100" r="1.6"/><circle cx="280" cy="160" r="1.6"/><circle cx="280" cy="220" r="1.6"/><circle cx="280" cy="280" r="1.6"/><circle cx="280" cy="340" r="1.6"/><circle cx="280" cy="400" r="1.6"/><circle cx="280" cy="460" r="1.6"/><circle cx="280" cy="520" r="1.6"/><circle cx="280" cy="580" r="1.6"/><circle cx="280" cy="640" r="1.6"/><circle cx="280" cy="700" r="1.6"/><circle cx="280" cy="760" r="1.6"/><circle cx="340" cy="40" r="1.6"/><circle cx="340" cy="100" r="1.6"/><circle cx="340" cy="160" r="1.6"/><circle cx="340" cy="220" r="1.6"/><circle cx="340" cy="280" r="1.6"/><circle cx="340" cy="340" r="1.6"/><circle cx="340" cy="400" r="1.6"/><circle cx="340" cy="460" r="1.6"/><circle cx="340" cy="520" r="1.6"/><circle cx="340" cy="580" r="1.6"/><circle cx="340" cy="640" r="1.6"/><circle cx="340" cy="700" r="1.6"/><circle cx="340" cy="760" r="1.6"/><circle cx="400" cy="40" r="1.6"/><circle cx="400" cy="100" r="1.6"/><circle cx="400" cy="160" r="1.6"/><circle cx="400" cy="220" r="1.6"/><circle cx="400" cy="280" r="1.6"/><circle cx="400" cy="340" r="1.6"/><circle cx="400" cy="400" r="1.6"/><circle cx="400" cy="460" r="1.6"/><circle cx="400" cy="520" r="1.6"/><circle cx="400" cy="580" r="1.6"/><circle cx="400" cy="640" r="1.6"/><circle cx="400" cy="700" r="1.6"/><circle cx="400" cy="760" r="1.6"/><circle cx="460" cy="40" r="1.6"/><circle cx="460" cy="100" r="1.6"/><circle cx="460" cy="160" r="1.6"/><circle cx="460" cy="220" r="1.6"/><circle cx="460" cy="280" r="1.6"/><circle cx="460" cy="340" r="1.6"/><circle cx="460" cy="400" r="1.6"/><circle cx="460" cy="460" r="1.6"/><circle cx="460" cy="520" r="1.6"/><circle cx="460" cy="580" r="1.6"/><circle cx="460" cy="640" r="1.6"/><circle cx="460" cy="700" r="1.6"/><circle cx="460" cy="760" r="1.6"/><circle cx="520" cy="40" r="1.6"/><circle cx="520" cy="100" r="1.6"/><circle cx="520" cy="160" r="1.6"/><circle cx="520" cy="220" r="1.6"/><circle cx="520" cy="280" r="1.6"/><circle cx="520" cy="340" r="1.6"/><circle cx="520" cy="400" r="1.6"/><circle cx="520" cy="460" r="1.6"/><circle cx="520" cy="520" r="1.6"/><circle cx="520" cy="580" r="1.6"/><circle cx="520" cy="640" r="1.6"/><circle cx="520" cy="700" r="1.6"/><circle cx="520" cy="760" r="1.6"/><circle cx="580" cy="40" r="1.6"/><circle cx="580" cy="100" r="1.6"/><circle cx="580" cy="160" r="1.6"/><circle cx="580" cy="220" r="1.6"/><circle cx="580" cy="280" r="1.6"/><circle cx="580" cy="340" r="1.6"/><circle cx="580" cy="400" r="1.6"/><circle cx="580" cy="460" r="1.6"/><circle cx="580" cy="520" r="1.6"/><circle cx="580" cy="580" r="1.6"/><circle cx="580" cy="640" r="1.6"/><circle cx="580" cy="700" r="1.6"/><circle cx="580" cy="760" r="1.6"/><circle cx="640" cy="40" r="1.6"/><circle cx="640" cy="100" r="1.6"/><circle cx="640" cy="160" r="1.6"/><circle cx="640" cy="220" r="1.6"/><circle cx="640" cy="280" r="1.6"/><circle cx="640" cy="340" r="1.6"/><circle cx="640" cy="400" r="1.6"/><circle cx="640" cy="460" r="1.6"/><circle cx="640" cy="520" r="1.6"/><circle cx="640" cy="580" r="1.6"/><circle cx="640" cy="640" r="1.6"/><circle cx="640" cy="700" r="1.6"/><circle cx="640" cy="760" r="1.6"/><circle cx="700" cy="40" r="1.6"/><circle cx="700" cy="100" r="1.6"/><circle cx="700" cy="160" r="1.6"/><circle cx="700" cy="220" r="1.6"/><circle cx="700" cy="280" r="1.6"/><circle cx="700" cy="340" r="1.6"/><circle cx="700" cy="400" r="1.6"/><circle cx="700" cy="460" r="1.6"/><circle cx="700" cy="520" r="1.6"/><circle cx="700" cy="580" r="1.6"/><circle cx="700" cy="640" r="1.6"/><circle cx="700" cy="700" r="1.6"/><circle cx="700" cy="760" r="1.6"/><circle cx="760" cy="40" r="1.6"/><circle cx="760" cy="100" r="1.6"/><circle cx="760" cy="160" r="1.6"/><circle cx="760" cy="220" r="1.6"/><circle cx="760" cy="280" r="1.6"/><circle cx="760" cy="340" r="1.6"/><circle cx="760" cy="400" r="1.6"/><circle cx="760" cy="460" r="1.6"/><circle cx="760" cy="520" r="1.6"/><circle cx="760" cy="580" r="1.6"/><circle cx="760" cy="640" r="1.6"/><circle cx="760" cy="700" r="1.6"/><circle cx="760" cy="760" r="1.6"/><circle cx="820" cy="40" r="1.6"/><circle cx="820" cy="100" r="1.6"/><circle cx="820" cy="160" r="1.6"/><circle cx="820" cy="220" r="1.6"/><circle cx="820" cy="280" r="1.6"/><circle cx="820" cy="340" r="1.6"/><circle cx="820" cy="400" r="1.6"/><circle cx="820" cy="460" r="1.6"/><circle cx="820" cy="520" r="1.6"/><circle cx="820" cy="580" r="1.6"/><circle cx="820" cy="640" r="1.6"/><circle cx="820" cy="700" r="1.6"/><circle cx="820" cy="760" r="1.6"/><circle cx="880" cy="40" r="1.6"/><circle cx="880" cy="100" r="1.6"/><circle cx="880" cy="160" r="1.6"/><circle cx="880" cy="220" r="1.6"/><circle cx="880" cy="280" r="1.6"/><circle cx="880" cy="340" r="1.6"/><circle cx="880" cy="400" r="1.6"/><circle cx="880" cy="460" r="1.6"/><circle cx="880" cy="520" r="1.6"/><circle cx="880" cy="580" r="1.6"/><circle cx="880" cy="640" r="1.6"/><circle cx="880" cy="700" r="1.6"/><circle cx="880" cy="760" r="1.6"/><circle cx="940" cy="40" r="1.6"/><circle cx="940" cy="100" r="1.6"/><circle cx="940" cy="160" r="1.6"/><circle cx="940" cy="220" r="1.6"/><circle cx="940" cy="280" r="1.6"/><circle cx="940" cy="340" r="1.6"/><circle cx="940" cy="400" r="1.6"/><circle cx="940" cy="460" r="1.6"/><circle cx="940" cy="520" r="1.6"/><circle cx="940" cy="580" r="1.6"/><circle cx="940" cy="640" r="1.6"/><circle cx="940" cy="700" r="1.6"/><circle cx="940" cy="760" r="1.6"/><circle cx="1000" cy="40" r="1.6"/><circle cx="1000" cy="100" r="1.6"/><circle cx="1000" cy="160" r="1.6"/><circle cx="1000" cy="220" r="1.6"/><circle cx="1000" cy="280" r="1.6"/><circle cx="1000" cy="340" r="1.6"/><circle cx="1000" cy="400" r="1.6"/><circle cx="1000" cy="460" r="1.6"/><circle cx="1000" cy="520" r="1.6"/><circle cx="1000" cy="580" r="1.6"/><circle cx="1000" cy="640" r="1.6"/><circle cx="1000" cy="700" r="1.6"/><circle cx="1000" cy="760" r="1.6"/><circle cx="1060" cy="40" r="1.6"/><circle cx="1060" cy="100" r="1.6"/><circle cx="1060" cy="160" r="1.6"/><circle cx="1060" cy="220" r="1.6"/><circle cx="1060" cy="280" r="1.6"/><circle cx="1060" cy="340" r="1.6"/><circle cx="1060" cy="400" r="1.6"/><circle cx="1060" cy="460" r="1.6"/><circle cx="1060" cy="520" r="1.6"/><circle cx="1060" cy="580" r="1.6"/><circle cx="1060" cy="640" r="1.6"/><circle cx="1060" cy="700" r="1.6"/><circle cx="1060" cy="760" r="1.6"/><circle cx="1120" cy="40" r="1.6"/><circle cx="1120" cy="100" r="1.6"/><circle cx="1120" cy="160" r="1.6"/><circle cx="1120" cy="220" r="1.6"/><circle cx="1120" cy="280" r="1.6"/><circle cx="1120" cy="340" r="1.6"/><circle cx="1120" cy="400" r="1.6"/><circle cx="1120" cy="460" r="1.6"/><circle cx="1120" cy="520" r="1.6"/><circle cx="1120" cy="580" r="1.6"/><circle cx="1120" cy="640" r="1.6"/><circle cx="1120" cy="700" r="1.6"/><circle cx="1120" cy="760" r="1.6"/><circle cx="1180" cy="40" r="1.6"/><circle cx="1180" cy="100" r="1.6"/><circle cx="1180" cy="160" r="1.6"/><circle cx="1180" cy="220" r="1.6"/><circle cx="1180" cy="280" r="1.6"/><circle cx="1180" cy="340" r="1.6"/><circle cx="1180" cy="400" r="1.6"/><circle cx="1180" cy="460" r="1.6"/><circle cx="1180" cy="520" r="1.6"/><circle cx="1180" cy="580" r="1.6"/><circle cx="1180" cy="640" r="1.6"/><circle cx="1180" cy="700" r="1.6"/><circle cx="1180" cy="760" r="1.6"/></g>
<circle cx="600" cy="400" r="420" fill="url(#glow)"/>
<g fill="none" stroke="#a8cfff" stroke-width="6" stroke-linecap="round" stroke-linejoin="round">
<ellipse cx="600" cy="250" rx="190" ry="60"/>
<path d="M410 250v150c0 33 85 60 190 60s190-27 190-60V250"/>
<path d="M410 400v150c0 33 85 60 190 60s190-27 190-60V400"/>
<path d="M470 345h.1M470 495h.1"/>
<path d="M230 400h120M850 400h120"/>
<circle cx="210" cy="400" r="20"/><circle cx="990" cy="400" r="20"/>
</g>
</svg>
